<svg xmlns="http://www.w3.org/2000/svg" viewBox="0 0 286.57 57.15"><defs><style>.cls-1{fill:#bd9a5f;}.cls-2{fill:#fff;}</style></defs><title>Asset 1</title><g id="Layer_2" data-name="Layer 2"><g id="Layer_1-2" data-name="Layer 1"><path class="cls-1" d="M0,57.15v0Z"/><path class="cls-2" d="M29.47,10.18c-.62-1.42-2.33-1.45-2.89-1.46l-1.15,0c-1,0-2.11,0-3.18,0l-3.07,0c-1.77,0-3.6,0-5.39,0a2.15,2.15,0,0,0-1.4.39c-1.73,1.24-1.4,4-1.14,6.3.05.43.1.84.11,1.07,0,.86.06,1.73.09,2.6.07,1.68.14,3.42.14,5.16,0,.2,0,.61,0,1-.14,2.5-.15,4.35.92,5.32a2.57,2.57,0,0,0,1.76.71,2.92,2.92,0,0,0,.5-.05c1.73-.34,2.75-2.32,2.94-2.71A46.93,46.93,0,0,1,23,20.39l.16-.2c.6-.79,1.18-1.6,1.74-2.37l.15-.22a23.17,23.17,0,0,1,1.75-2.07A23.89,23.89,0,0,0,28.91,13a3,3,0,0,0,.56-2.82"/><path class="cls-2" d="M48.75,14.22a17.12,17.12,0,0,1-.1-2.09,1.64,1.64,0,0,0-.49-1.24c-.5-.5-.84-.84-6.67-.49h-.1c-.33,0-.67,0-1,0a15,15,0,0,0-2.73.23,4.33,4.33,0,0,0-1.75.8,10.17,10.17,0,0,0-1.75,1.79,12,12,0,0,1-.89,1A31.23,31.23,0,0,0,30.71,17c-.37.44-.75.88-1.13,1.3-.88,1-1.78,1.92-2.67,2.87-1.72,1.83-3.49,3.72-5.14,5.71-.84,1-2.45,2-2.11,3.5a1.87,1.87,0,0,0,.71,1.1,2.48,2.48,0,0,0,.26.19,1.54,1.54,0,0,0,.66.2,2.41,2.41,0,0,0,.38,0,3.65,3.65,0,0,0,.59-.08,7.39,7.39,0,0,0,1.13-.35c1.06-.42,2.08-.92,3.1-1.42l.08,0a66.7,66.7,0,0,1,6.65-2.57l5.79-2c2-.7,4.05-1.42,6.11-1.92,4.32-.85,3.89-6.11,3.63-9.26"/><path class="cls-2" d="M27,43.38c-.18-.13-.39-.3-.47-.37l-.63-.59c-.17-.14-.33-.29-.47-.42-.58-.55-1.17-1.07-1.75-1.57-.39-.33-.79-.65-1.19-1a23,23,0,0,1-2.13-1.82c-.2-.2-.49-.43-.71-.61-.82-.69-1.66-1.34-2.52-2l-.87-.64a2.35,2.35,0,0,0-2.66-.34c-1.55.84-1.71,3.1-1.47,7,0,.27,0,.47,0,.6s0,.45-.06.74c-.14,1.55-.39,4.14,1.68,5a7.52,7.52,0,0,0,3.47.37h.19c.59,0,1.21,0,1.87,0,.42,0,.85,0,1.27,0,1,0,2,0,2.93,0s1.73,0,2.61,0h.3c1.26,0,2.05-.45,2.35-1.32.46-1.39-.78-2.35-1.77-3.12"/><path class="cls-2" d="M48,31.15c0-.21,0-.38,0-.49a6.5,6.5,0,0,1,.06-.84,4.78,4.78,0,0,0-.41-3.09,2.18,2.18,0,0,0-1.15-1,2.22,2.22,0,0,0-1.39,0C44,26,43,26.33,42,26.69s-1.67.6-2.5.84c-1.55.44-3.09.93-4.59,1.41l-1.48.47-.75.23a2.33,2.33,0,0,0-.88.43,1.65,1.65,0,0,0-.34.41,1.76,1.76,0,0,0-.07,1.65,2.45,2.45,0,0,0,2,1.15c.55.09,1.08.15,1.61.2a11,11,0,0,1,2,.41l.5.13a17.82,17.82,0,0,0,1.77.35l.94.17,1,.22c.42.1.85.2,1.28.28a13.65,13.65,0,0,0,2.6.28c1.84,0,2.34-.59,2.54-.83.63-.76.57-1.81.41-3.34"/><path class="cls-1" d="M0,57.15H60V0H0Zm57.58-2.37H2.37V2.37H57.58Z"/><path class="cls-2" d="M46.67,38.63c-1.42-.19-2.85-.42-4.28-.68a89.52,89.52,0,0,1-9.74-2.36q-1.11-.31-2.13-.57c-.9-.24-1.74-.46-2.64-.74a19.45,19.45,0,0,0-2.28-.56,15.33,15.33,0,0,0-2-.39,2,2,0,0,0-1.42.35,1.79,1.79,0,0,0-.51,1.9,4.44,4.44,0,0,0,1.59,2.19A14.07,14.07,0,0,0,25,39a12.35,12.35,0,0,1,1.28.83,43.64,43.64,0,0,1,4.81,4.39c.26.28.5.55.73.82,1.25,1.44,2.67,3.07,5.39,3.27l1.6.1,2.63.19a11.5,11.5,0,0,1,1.2.2,11.94,11.94,0,0,0,2.26.29,5.07,5.07,0,0,0,.68,0c2.57-.36,2.34-2.68,2.27-3.44a4.05,4.05,0,0,1,0-.48c0-.21.06-1.53.1-2.49,0-.6,0-1.19.07-1.63,0-.79.09-2.13-1.32-2.34"/><rect class="cls-1" x="215.26" y="46.65" width="71.31" height="1.72"/><rect class="cls-1" x="83.72" y="46.65" width="71.31" height="1.72"/><polygon class="cls-2" points="169.35 51.41 169.35 44.51 167.78 45.17 167.15 43.72 169.77 42.5 171.06 42.5 171.06 51.41 169.35 51.41"/><path class="cls-2" d="M178.61,48.19a2.45,2.45,0,0,1-1-.21,2.5,2.5,0,0,1-.86-.59,2.86,2.86,0,0,1-.61-.9,3,3,0,0,1,0-2.38,3,3,0,0,1,.7-1,3.24,3.24,0,0,1,2.2-.86,3.42,3.42,0,0,1,1.3.25,3.2,3.2,0,0,1,1,.68,3,3,0,0,1,.65,1,3.19,3.19,0,0,1,.23,1.19,3.68,3.68,0,0,1-.36,1.63,10.61,10.61,0,0,1-.9,1.52l-2.17,3.07-1.31-.89L179.48,48l-.18.08a1.67,1.67,0,0,1-.69.13m.49-4.32a1.47,1.47,0,0,0-.56.1,1.5,1.5,0,0,0-.48.3,1.35,1.35,0,0,0-.33.45,1.42,1.42,0,0,0-.13.59,1.45,1.45,0,0,0,.46,1,1.5,1.5,0,0,0,.48.3,1.69,1.69,0,0,0,.56.1,1.78,1.78,0,0,0,.56-.1,1.54,1.54,0,0,0,.49-.3,1.57,1.57,0,0,0,.34-.46,1.38,1.38,0,0,0,.12-.59,1.41,1.41,0,0,0-.12-.59,1.54,1.54,0,0,0-1.39-.85"/><path class="cls-2" d="M199.27,48.19a2.48,2.48,0,0,1-1-.21,2.59,2.59,0,0,1-.86-.59,2.84,2.84,0,0,1-.6-.9,3,3,0,0,1,0-2.38,3,3,0,0,1,.7-1,3.14,3.14,0,0,1,1-.63,3.19,3.19,0,0,1,1.19-.23,3.23,3.23,0,0,1,2.33.93,3.11,3.11,0,0,1,.65,1,3.19,3.19,0,0,1,.23,1.19,3.82,3.82,0,0,1-.36,1.63,9.84,9.84,0,0,1-.91,1.52l-2.16,3.07-1.31-.89L200.14,48l-.18.08a1.67,1.67,0,0,1-.69.13m.5-4.32a1.56,1.56,0,0,0-.57.1,1.45,1.45,0,0,0-.47.3,1.53,1.53,0,0,0-.34.45,1.41,1.41,0,0,0-.12.59,1.38,1.38,0,0,0,.12.59,1.57,1.57,0,0,0,.34.46,1.45,1.45,0,0,0,.47.3,1.65,1.65,0,0,0,1.13,0,1.66,1.66,0,0,0,.49-.3,1.39,1.39,0,0,0,.33-.46,1.25,1.25,0,0,0,.13-.59,1.28,1.28,0,0,0-.13-.59,1.35,1.35,0,0,0-.33-.45,1.66,1.66,0,0,0-.49-.3,1.54,1.54,0,0,0-.56-.1"/><path class="cls-2" d="M188.84,49.91h3.74v1.5h-5.93V49.86l1.42-1.41.56-.56.54-.53.44-.45.3-.32.37-.44a2.2,2.2,0,0,0,.26-.39,2.5,2.5,0,0,0,.15-.38,1.7,1.7,0,0,0,.05-.41,1,1,0,0,0-.34-.74,1.24,1.24,0,0,0-.92-.32,1.21,1.21,0,0,0-.91.33,1.72,1.72,0,0,0-.45.75l-1.55-.64a2.94,2.94,0,0,1,.94-1.39,3.28,3.28,0,0,1,.87-.48,3.06,3.06,0,0,1,1.12-.19,3.69,3.69,0,0,1,1.23.2,2.74,2.74,0,0,1,.92.56,2.46,2.46,0,0,1,.8,1.85,3,3,0,0,1-.41,1.53,7.2,7.2,0,0,1-1,1.29l-1.12,1.12Z"/><polygon class="cls-2" points="97.35 30.72 88.79 20.56 86.52 23.14 86.52 30.72 83.71 30.72 83.71 8.14 86.52 8.14 86.52 19.82 96.51 8.14 100.03 8.14 90.62 18.87 100.84 30.72 97.35 30.72"/><path class="cls-2" d="M128.83,30.72l-2-5H115.6l-2,5h-3.22l9.08-22.58h3.48l9.11,22.58Zm-7.61-19.67L116.41,23.2H126Z"/><polygon class="cls-2" points="143.66 30.72 143.66 8.14 146.47 8.14 146.47 28.21 156.96 28.21 156.96 30.72 143.66 30.72"/><path class="cls-2" d="M169.59,30.72V8.14h7.72c7,0,11.57,4.91,11.57,11.31s-4.57,11.27-11.57,11.27ZM186,19.45c0-4.88-3.08-8.8-8.66-8.8H172.4V28.21h4.91c5.48,0,8.66-3.92,8.66-8.76"/><path class="cls-2" d="M215,30.72l-5.75-9h-4.5v9H202V8.14H211c4.13,0,7.08,2.64,7.08,6.8a6.24,6.24,0,0,1-5.86,6.57l6.09,9.21Zm.17-15.78a4.19,4.19,0,0,0-4.5-4.29h-5.92v8.63h5.92a4.22,4.22,0,0,0,4.5-4.34"/><polygon class="cls-2" points="250.49 30.72 250.49 12.13 242.81 30.72 241.66 30.72 234 12.13 234 30.72 231.19 30.72 231.19 8.14 235.22 8.14 242.23 25.13 249.27 8.14 253.3 8.14 253.3 30.72 250.49 30.72"/><path class="cls-2" d="M283.36,30.72l-2-5H270.12l-2,5h-3.21L274,8.14h3.49l9.1,22.58Zm-7.62-19.67L270.93,23.2h9.58Z"/></g></g></svg>